<?xml version="1.0" standalone="no"?>
<!DOCTYPE svg PUBLIC "-//W3C//DTD SVG 20010904//EN"
 "http://www.w3.org/TR/2001/REC-SVG-20010904/DTD/svg10.dtd">
<svg version="1.0" xmlns="http://www.w3.org/2000/svg"
 width="127.000000pt" height="127.000000pt" viewBox="0 0 127.000000 127.000000"
 preserveAspectRatio="xMidYMid meet">
<metadata>
Created by potrace 1.11, written by Peter Selinger 2001-2013
</metadata>
<g transform="translate(0.000000,127.000000) scale(0.100000,-0.100000)"
fill="#000000" stroke="none">
<path d="M244 855 c-4 -8 -10 -13 -14 -10 -5 3 -6 -5 -2 -17 4 -18 2 -20 -17
-15 -15 4 -24 -1 -32 -16 -17 -33 -51 -67 -60 -61 -5 3 -6 -2 -3 -10 3 -9 3
-24 -1 -33 -5 -10 -9 -25 -9 -33 -1 -8 -8 -14 -16 -12 -12 3 -13 1 -2 -9 14
-15 16 -33 2 -24 -6 4 -7 -1 -3 -11 5 -13 3 -15 -7 -9 -10 6 -11 -2 -5 -41 25
-168 192 -261 336 -188 28 14 87 60 130 103 58 57 82 75 89 66 5 -6 6 -15 2
-19 -4 -4 -2 -7 3 -5 6 1 39 -26 75 -60 139 -132 257 -147 369 -46 60 55 84
122 79 220 -4 64 -9 88 -30 121 -57 89 -143 132 -240 121 -62 -8 -108 -37
-202 -129 -37 -38 -70 -68 -72 -68 -2 0 -39 34 -82 76 -95 93 -151 124 -227
124 -40 0 -57 -4 -61 -15z m146 -85 c42 -21 180 -146 180 -162 0 -5 -32 -41
-71 -79 -78 -78 -156 -121 -199 -110 -14 4 -31 6 -37 5 -7 -1 -17 -2 -23 -3
-5 0 -8 -7 -6 -13 1 -7 1 -10 -1 -5 -3 4 -12 7 -22 7 -16 0 -104 81 -102 94 0
3 -6 20 -14 38 -12 30 -12 35 6 51 10 10 19 25 19 33 0 24 36 87 67 115 54 51
137 63 203 29z m637 -13 c59 -41 86 -96 81 -163 -11 -125 -147 -209 -258 -159
-22 10 -40 22 -40 27 0 4 -5 8 -11 8 -13 0 -95 76 -121 113 l-20 28 77 75 c42
41 81 72 86 68 5 -3 9 -1 9 4 0 18 47 32 102 29 42 -2 66 -10 95 -30z"/>
<path d="M110 551 c0 -6 4 -13 10 -16 6 -3 7 1 4 9 -7 18 -14 21 -14 7z"/>
<path d="M130 501 c0 -6 4 -13 10 -16 6 -3 7 1 4 9 -7 18 -14 21 -14 7z"/>
<path d="M81 674 c0 -11 3 -14 6 -6 3 7 2 16 -1 19 -3 4 -6 -2 -5 -13z"/>
</g>
</svg>
